<?xml version="1.0" ?><svg id="Layer_1" style="enable-background:new 0 0 64 64;" version="1.1" viewBox="0 0 64 64" xml:space="preserve" xmlns="http://www.w3.org/2000/svg" xmlns:xlink="http://www.w3.org/1999/xlink"><style type="text/css">
	.st0{fill:#E62B33;}
	.st1{fill:none;stroke:#6081C4;stroke-width:1.858;stroke-linecap:round;stroke-linejoin:round;stroke-miterlimit:10;}
	.st2{fill:none;stroke:#E62B33;stroke-linecap:round;stroke-linejoin:round;stroke-miterlimit:10;}
	.st3{opacity:0.15;}
	.st4{opacity:0.2;}
	.st5{fill:#FFFFFF;}
</style><circle class="st0" cx="32" cy="32" r="26.1"/><path class="st2" d="M52.1,12.7c4.8,5,7.8,11.8,7.8,19.3c0,15.4-12.5,27.9-27.9,27.9S4.1,47.4,4.1,32S16.6,4.1,32,4.1  c3.4,0,6.7,0.6,9.7,1.7"/><path class="st2" d="M45.5,7.6c1.2,0.6,2.3,1.4,3.3,2.2"/><circle class="st3" cx="32" cy="32" r="22.8"/><circle class="st3" cx="32" cy="32" r="17.5"/><g><g class="st4"><path d="M43.9,30.7c-0.2,0-0.4,0-0.6,0c0,0,0-0.1,0-0.1c0-0.2,0-0.3,0-0.4c0-0.8,0-1.5,0-2.3    c0-0.1-0.1-0.3-0.2-0.3c-0.7,0-1.4,0-2.1,0c0,0.9,0,1.8,0,2.6c0,0.2,0,0.3,0,0.5c-1.1,0-2.1,0-3.1,0c0,0.2,0,0.4,0,0.6    c0,0.6,0.1,1.1,0.1,1.7c0.6,0,1.1,0,1.7,0.1c0.5,0,0.9,0,1.4,0c0,1.1,0,2.1,0,3.1c0.8,0,1.5,0,2.3,0c0-1,0-2,0-3.1    c1.1,0,2.1,0,3.1,0c0-0.6,0-1.2,0-1.7c0-0.2,0-0.4,0-0.6C45.5,30.7,44.7,30.7,43.9,30.7z" id="XMLID_37_"/><path d="M35,30.4c-2,0-3.9,0-5.9,0c-0.6,0-1.1,0-1.7,0c-0.1,0-0.3,0.1-0.3,0.2c0,1.1,0,2.3,0,3.5    c1.6,0,3.2,0,4.8,0c-0.1,0.2-0.1,0.4-0.2,0.6c-0.7,2.2-3,3.3-5.4,2.9c-3-0.5-4.9-3.3-4.3-6.3c0.1-0.4,0.2-0.8,0.4-1.2    c1-2.2,3.4-3.5,5.9-3c0.9,0.2,1.6,0.6,2.3,1.2c0.9-0.9,1.7-1.7,2.6-2.6c-0.1,0-0.1-0.1-0.2-0.2c-2.1-1.8-4.6-2.4-7.3-2    c-3.9,0.6-6.7,3.7-7.4,7.3c-0.3,1.5-0.1,3.2,0.5,4.8c1.5,3.8,5.3,6.2,9.5,5.7c2-0.2,3.8-0.9,5.2-2.4c2.1-2.2,2.6-4.9,2.3-7.8    C35.6,30.5,35.4,30.4,35,30.4z" id="XMLID_36_"/></g><g><g><path class="st5" d="M43.6,30.4c-0.2,0-0.4,0-0.6,0c0,0,0-0.1,0-0.1c0-0.2,0-0.3,0-0.4c0-0.8,0-1.5,0-2.3     c0-0.1-0.1-0.3-0.2-0.3c-0.7,0-1.4,0-2.1,0c0,0.9,0,1.8,0,2.6c0,0.2,0,0.3,0,0.5c-1.1,0-2.1,0-3.1,0c0,0.2,0,0.4,0,0.6     c0,0.6,0.1,1.1,0.1,1.7c0.6,0,1.1,0,1.7,0.1c0.5,0,0.9,0,1.4,0c0,1.1,0,2.1,0,3.1c0.8,0,1.5,0,2.3,0c0-1,0-2,0-3.1     c1.1,0,2.1,0,3.1,0c0-0.6,0-1.2,0-1.7c0-0.2,0-0.4,0-0.6C45.3,30.4,44.5,30.4,43.6,30.4z" id="XMLID_25_"/><path class="st5" d="M34.7,30.1c-2,0-3.9,0-5.9,0c-0.6,0-1.1,0-1.7,0c-0.1,0-0.3,0.1-0.3,0.2c0,1.1,0,2.3,0,3.5     c1.6,0,3.2,0,4.8,0c-0.1,0.2-0.1,0.4-0.2,0.6c-0.7,2.2-3,3.3-5.4,2.9c-3-0.5-4.9-3.3-4.3-6.3c0.1-0.4,0.2-0.8,0.4-1.2     c1-2.2,3.4-3.5,5.9-3c0.9,0.2,1.6,0.6,2.3,1.2c0.9-0.9,1.7-1.7,2.6-2.6c-0.1,0-0.1-0.1-0.2-0.2c-2.1-1.8-4.6-2.4-7.3-2     c-3.9,0.6-6.7,3.7-7.4,7.3c-0.3,1.5-0.1,3.2,0.5,4.8c1.5,3.8,5.3,6.2,9.5,5.7c2-0.2,3.8-0.9,5.2-2.4c2.1-2.2,2.6-4.9,2.3-7.8     C35.4,30.2,35.2,30.1,34.7,30.1z" id="XMLID_24_"/></g></g></g></svg>