<?xml version="1.0" ?><svg id="Layer_1" style="enable-background:new 0 0 64 64;" version="1.1" viewBox="0 0 64 64" xml:space="preserve" xmlns="http://www.w3.org/2000/svg" xmlns:xlink="http://www.w3.org/1999/xlink"><style type="text/css">
	.st0{fill:#CB1F27;}
	.st1{fill:none;stroke:#6081C4;stroke-width:1.858;stroke-linecap:round;stroke-linejoin:round;stroke-miterlimit:10;}
	.st2{fill:none;stroke:#CB1F27;stroke-linecap:round;stroke-linejoin:round;stroke-miterlimit:10;}
	.st3{opacity:0.15;}
	.st4{opacity:0.2;}
	.st5{fill:#FFFFFF;}
</style><circle class="st0" cx="32" cy="32" r="26.1"/><path class="st2" d="M52.1,12.7c4.8,5,7.8,11.8,7.8,19.3c0,15.4-12.5,27.9-27.9,27.9S4.1,47.4,4.1,32S16.6,4.1,32,4.1  c3.4,0,6.7,0.6,9.7,1.7"/><path class="st2" d="M45.5,7.6c1.2,0.6,2.3,1.4,3.3,2.2"/><circle class="st3" cx="32" cy="32" r="22.8"/><circle class="st3" cx="32" cy="32" r="17.5"/><g id="XMLID_23_"><g class="st4"><path d="M33.1,20.4c-6.8,0-10.3,4.7-10.3,8.7c0,0.7,0.1,1.4,0.3,2.1c0.4,1.5,1.3,2.7,2.7,3.2c0.3,0.1,0.6,0,0.7-0.3    c0.1-0.2,0.2-0.9,0.3-1.1c0.1-0.3,0.1-0.5-0.2-0.8c-0.3-0.4-0.6-0.9-0.8-1.4c-0.1-0.4-0.2-0.8-0.2-1.3c0-3.5,2.7-6.7,7.1-6.7    c3.9,0,6,2.3,6,5.3c0,0.9-0.1,1.8-0.3,2.6c-0.6,2.8-2.2,4.8-4.3,4.8c-1.5,0-2.6-1.2-2.3-2.7c0.2-0.8,0.5-1.7,0.8-2.5    c0.3-0.9,0.5-1.7,0.5-2.4c0-1.1-0.6-2.1-1.9-2.1c-1.5,0-2.8,1.5-2.8,3.6c0,0.4,0,0.7,0.1,1c0.1,0.7,0.4,1.2,0.4,1.2    s-1.6,6.4-1.8,7.6c-0.5,2.2-0.1,5,0,5.3c0,0.2,0.2,0.2,0.3,0.1c0.1-0.2,2-2.4,2.6-4.6c0.2-0.6,1-3.8,1-3.8c0.5,0.9,2,1.7,3.5,1.7    c3.8,0,6.5-2.7,7.4-6.7c0.2-0.9,0.3-1.9,0.3-2.9C42.2,24.3,38.6,20.4,33.1,20.4z"/></g><g><path class="st5" d="M32.6,19.9c-6.8,0-10.3,4.7-10.3,8.7c0,0.7,0.1,1.4,0.3,2.1c0.4,1.5,1.3,2.7,2.7,3.2c0.3,0.1,0.6,0,0.7-0.3    c0.1-0.2,0.2-0.9,0.3-1.1c0.1-0.3,0.1-0.5-0.2-0.8c-0.3-0.4-0.6-0.9-0.8-1.4c-0.1-0.4-0.2-0.8-0.2-1.3c0-3.5,2.7-6.7,7.1-6.7    c3.9,0,6,2.3,6,5.3c0,0.9-0.1,1.8-0.3,2.6C37.3,33,35.7,35,33.6,35c-1.5,0-2.6-1.2-2.3-2.7c0.2-0.8,0.5-1.7,0.8-2.5    c0.3-0.9,0.5-1.7,0.5-2.4c0-1.1-0.6-2.1-1.9-2.1c-1.5,0-2.8,1.5-2.8,3.6c0,0.4,0,0.7,0.1,1c0.1,0.7,0.4,1.2,0.4,1.2    s-1.6,6.4-1.8,7.6c-0.5,2.2-0.1,5,0,5.3c0,0.2,0.2,0.2,0.3,0.1c0.1-0.2,2-2.4,2.6-4.6c0.2-0.6,1-3.8,1-3.8c0.5,0.9,2,1.7,3.5,1.7    c3.8,0,6.5-2.7,7.4-6.7c0.2-0.9,0.3-1.9,0.3-2.9C41.7,23.7,38.1,19.9,32.6,19.9z"/></g></g></svg>