<?xml version="1.0" ?><svg id="Layer_1" style="enable-background:new 0 0 64 64;" version="1.1" viewBox="0 0 64 64" xml:space="preserve" xmlns="http://www.w3.org/2000/svg" xmlns:xlink="http://www.w3.org/1999/xlink"><style type="text/css">
	.st0{fill:#43BDEF;}
	.st1{fill:none;stroke:#6081C4;stroke-width:1.858;stroke-linecap:round;stroke-linejoin:round;stroke-miterlimit:10;}
	.st2{fill:none;stroke:#43BDEF;stroke-linecap:round;stroke-linejoin:round;stroke-miterlimit:10;}
	.st3{opacity:0.15;}
	.st4{opacity:0.2;}
	.st5{fill:#FFFFFF;}
</style><circle class="st0" cx="32" cy="32" r="26.1"/><path class="st2" d="M52.1,12.7c4.8,5,7.8,11.8,7.8,19.3c0,15.4-12.5,27.9-27.9,27.9S4.1,47.4,4.1,32S16.6,4.1,32,4.1  c3.4,0,6.7,0.6,9.7,1.7"/><path class="st2" d="M45.5,7.6c1.2,0.6,2.3,1.4,3.3,2.2"/><circle class="st3" cx="32" cy="32" r="22.8"/><circle class="st3" cx="32" cy="32" r="17.5"/><g id="XMLID_47_"><g class="st4"><path d="M43.6,25.7c-0.8,0.4-1.7,0.6-2.6,0.7c0.9-0.6,1.7-1.4,2-2.5c-0.9,0.5-1.9,0.9-2.9,1.1c-0.8-0.9-2-1.4-3.3-1.4    c-2.5,0-4.6,2-4.6,4.5c0,0.4,0,0.7,0.1,1c-3.8-0.2-7.2-2-9.4-4.7c-0.4,0.7-0.6,1.4-0.6,2.3c0,1.6,0.8,2.9,2,3.7    c-0.7,0-1.5-0.2-2.1-0.6c0,0,0,0,0,0.1c0,0.6,0.1,1.1,0.3,1.6c0.6,1.4,1.8,2.5,3.4,2.8c-0.4,0.1-0.8,0.2-1.2,0.2    c-0.3,0-0.6,0-0.9-0.1c0.6,1.8,2.3,3.1,4.3,3.1c-1.6,1.2-3.5,1.9-5.7,1.9c-0.4,0-0.7,0-1.1-0.1c2,1.3,4.4,2,7,2    c7.2,0,11.5-5,12.7-10.1c0.2-0.9,0.3-1.8,0.3-2.7c0-0.2,0-0.4,0-0.6C42.3,27.4,43,26.6,43.6,25.7z"/></g><g><path class="st5" d="M43.1,25.2c-0.8,0.4-1.7,0.6-2.6,0.7c0.9-0.6,1.7-1.4,2-2.5c-0.9,0.5-1.9,0.9-2.9,1.1c-0.8-0.9-2-1.4-3.3-1.4    c-2.5,0-4.6,2-4.6,4.5c0,0.4,0,0.7,0.1,1c-3.8-0.2-7.2-2-9.4-4.7c-0.4,0.7-0.6,1.4-0.6,2.3c0,1.6,0.8,2.9,2,3.7    c-0.7,0-1.5-0.2-2.1-0.6c0,0,0,0,0,0.1c0,0.6,0.1,1.1,0.3,1.6c0.6,1.4,1.8,2.5,3.4,2.8C25,33.9,24.6,34,24.2,34    c-0.3,0-0.6,0-0.9-0.1c0.6,1.8,2.3,3.1,4.3,3.1c-1.6,1.2-3.5,1.9-5.7,1.9c-0.4,0-0.7,0-1.1-0.1c2,1.3,4.4,2,7,2    c7.2,0,11.5-5,12.7-10.1c0.2-0.9,0.3-1.8,0.3-2.7c0-0.2,0-0.4,0-0.6C41.8,26.9,42.5,26.1,43.1,25.2z"/></g></g></svg>