<?xml version="1.0" ?><svg height="32px" id="Facebook" style="enable-background:new 0 0 32 32;" version="1.0" viewBox="0 0 32 32" width="32px" xml:space="preserve" xmlns="http://www.w3.org/2000/svg" xmlns:xlink="http://www.w3.org/1999/xlink"><style type="text/css">
	.Drop_x0020_Shadow{fill:none;}
	.Round_x0020_Corners_x0020_2_x0020_pt{fill:#FFFFFF;stroke:#231F20;stroke-miterlimit:10;}
	.Live_x0020_Reflect_x0020_X{fill:none;}
	.Bevel_x0020_Soft{fill:url(#SVGID_1_);}
	.Dusk{fill:#FFFFFF;}
	.Foliage_GS{fill:#FFDD00;}
	.Pompadour_GS{fill-rule:evenodd;clip-rule:evenodd;fill:#44ADE2;}
	.st0{fill:#3D5AA7;}
	.st1{fill:#1C4584;}
	.st2{fill:#FFFFFF;}
</style><linearGradient gradientUnits="userSpaceOnUse" id="SVGID_1_" x1="0" x2="0.7071" y1="0" y2="0.7071"><stop offset="0" style="stop-color:#DEDFE3"/><stop offset="0.1783" style="stop-color:#DADBDF"/><stop offset="0.3611" style="stop-color:#CECFD3"/><stop offset="0.546" style="stop-color:#B9BCBF"/><stop offset="0.7324" style="stop-color:#9CA0A2"/><stop offset="0.9181" style="stop-color:#787D7E"/><stop offset="1" style="stop-color:#656B6C"/></linearGradient><g id="XMLID_28_"><path class="st0" d="M27.2,31.3H4.8c-2.4,0-4.3-1.9-4.3-4.3V4.6c0-2.4,1.9-4.3,4.3-4.3h22.4c2.4,0,4.3,1.9,4.3,4.3   V27C31.5,29.4,29.6,31.3,27.2,31.3z" id="XMLID_4_"/><polygon class="st1" id="XMLID_5_" points="31.5,31.5 0.5,31.5 0.5,23.7 31.5,23.6  "/><path class="st2" d="M17.6,31.7h5.2V19.1h4.3l1.1-5.3l-5.3,0l0-2.3c0-0.4,0.1-0.8,0.2-1.2c0.3-1,1.3-1.7,2.5-1.7   c0.7,0,2.6-0.1,2.6-0.1V3.3l-3,0c-0.3,0-0.9,0-1.2,0c-0.7,0-2.8,0.1-4.5,2c-0.9,1-1.8,2.9-1.7,5.8c0,1.5,0,2.7,0,2.7h-4.2v5.3h3.2   h0.7h0.2h0.2L17.6,31.7h5.2l0,0" id="XMLID_248_"/></g></svg>