<?xml version="1.0" ?><svg height="32px" id="Google_Plus" style="enable-background:new 0 0 32 32;" version="1.0" viewBox="0 0 32 32" width="32px" xml:space="preserve" xmlns="http://www.w3.org/2000/svg" xmlns:xlink="http://www.w3.org/1999/xlink"><style type="text/css">
	.Drop_x0020_Shadow{fill:none;}
	.Round_x0020_Corners_x0020_2_x0020_pt{fill:#FFFFFF;stroke:#231F20;stroke-miterlimit:10;}
	.Live_x0020_Reflect_x0020_X{fill:none;}
	.Bevel_x0020_Soft{fill:url(#SVGID_1_);}
	.Dusk{fill:#FFFFFF;}
	.Foliage_GS{fill:#FFDD00;}
	.Pompadour_GS{fill-rule:evenodd;clip-rule:evenodd;fill:#44ADE2;}
	.st0{fill:#C52227;}
	.st1{fill:#811618;}
	.st2{fill:#FFFFFF;}
</style><linearGradient gradientUnits="userSpaceOnUse" id="SVGID_1_" x1="-235" x2="-234.2929" y1="0" y2="0.7071"><stop offset="0" style="stop-color:#DEDFE3"/><stop offset="0.1783" style="stop-color:#DADBDF"/><stop offset="0.3611" style="stop-color:#CECFD3"/><stop offset="0.546" style="stop-color:#B9BCBF"/><stop offset="0.7324" style="stop-color:#9CA0A2"/><stop offset="0.9181" style="stop-color:#787D7E"/><stop offset="1" style="stop-color:#656B6C"/></linearGradient><g id="XMLID_269_"><path class="st0" d="M27.1,31.3H4.8c-2.4,0-4.3-1.9-4.3-4.3V4.8c0-2.4,1.9-4.3,4.3-4.3h22.3c2.4,0,4.3,1.9,4.3,4.3   V27C31.4,29.4,29.5,31.3,27.1,31.3z" id="XMLID_208_"/><polygon class="st1" id="XMLID_207_" points="31.4,31.4 0.6,31.4 0.6,23.8 31.4,23.7  "/><g id="uQPglT.tif"><g id="XMLID_79_"><path class="st2" d="M24.7,14.8C24.7,14.8,24.7,14.8,24.7,14.8c0,1.1,0,2,0,3c0,0.2,0,0.2-0.2,0.2     c-1,0-1.9,0-2.9,0c-0.1,0-0.1,0-0.1,0.1c0,0.7,0,1.3,0,2c0,0.1,0,0.1,0.1,0.1c1,0,1.9,0,2.9,0c0.2,0,0.2,0,0.2,0.2     c0,1,0,1.9,0,2.9c0,0,0,0.1,0,0.1c0.7,0,1.4,0,2.1,0c0.1,0,0.1,0,0.1-0.1c0-0.1,0-0.3,0-0.4c0-0.5,0-1,0-1.6c0-0.3,0-0.6,0-1     c0-0.1,0-0.1,0.2-0.1c1,0,1.9,0,2.9,0c0.1,0,0.1,0,0.1-0.1c0-0.6,0-1.3,0-1.9c0-0.1,0-0.1-0.1-0.1c-1,0-1.9,0-2.9,0     c-0.1,0-0.1,0-0.1-0.1c0-0.2,0-0.4,0-0.6c0-0.6,0-1.3,0-1.9c0-0.2,0-0.3,0-0.5C26.2,14.8,25.5,14.8,24.7,14.8z" id="XMLID_104_"/><path class="st2" d="M11.2,10.5c0.1,0,0.2,0,0.3,0c0.7,0,1.3,0.2,2,0.4c0.9,0.3,1.8,0.7,2.6,1.3     c0.3,0.2,0.5,0.4,0.8,0.6c0,0-0.1,0.1-0.1,0.1c-0.8,0.8-1.6,1.6-2.4,2.4c-0.1,0.1-0.1,0.1-0.2,0c-0.5-0.5-1.1-0.8-1.7-1     c-0.4-0.1-0.9-0.2-1.3-0.2c-1.5-0.1-2.7,0.4-3.8,1.4c-0.6,0.5-1,1.2-1.3,1.9c-0.2,0.5-0.3,1-0.4,1.5c0,0.4,0,0.8,0,1.2     c0,0.3,0.1,0.7,0.2,1c0.2,0.7,0.6,1.4,1.1,2c0.7,0.8,1.6,1.4,2.7,1.6c0.7,0.2,1.3,0.2,2,0.1c0.4-0.1,0.7-0.1,1.1-0.2     c1.3-0.4,2.3-1.3,2.8-2.6c0.1-0.2,0.1-0.4,0.2-0.6c0-0.1,0-0.1-0.1-0.1c-1,0-1.9,0-2.9,0c-0.6,0-1.1,0-1.7,0c0,0,0,0-0.1,0     c0-0.1,0-0.1,0-0.1c0-1,0-2,0-3c0-0.1,0-0.2,0-0.3c0-0.1,0-0.1,0.1-0.1c0.6,0,1.2,0,1.8,0c0.9,0,1.7,0,2.6,0c1,0,2,0,3,0     c0.3,0,0.5,0,0.8,0c0.1,0,0.1,0,0.1,0.1c0,0.2,0.1,0.4,0.1,0.7c0,0.4,0.1,0.7,0.1,1.1c0,0.3,0,0.7,0,1c0,0.3,0,0.6-0.1,0.9     c-0.1,0.4-0.2,0.8-0.3,1.2c-0.2,0.8-0.6,1.5-1.1,2.2c-0.5,0.8-1.2,1.4-1.9,2c-0.9,0.6-1.8,1-2.9,1.3c-0.7,0.2-1.4,0.2-2,0.2     c0,0-0.1,0-0.1,0c0,0,0,0-0.1,0c0,0-0.1,0-0.1,0c-0.6,0-1.1,0-1.6-0.2c-0.6-0.1-1.1-0.3-1.7-0.5c-1.1-0.5-2.1-1.1-2.9-1.9     C3.7,25,3.1,24,2.6,23c-0.4-0.9-0.6-1.9-0.7-2.9c0-0.1,0-0.3,0-0.4c0-0.2,0-0.4,0-0.6c0,0,0,0,0-0.1c0-0.3,0-0.5,0.1-0.8     c0.1-0.7,0.3-1.4,0.6-2.1c0.5-1.2,1.2-2.3,2.2-3.1c1-0.9,2.2-1.6,3.5-2c0.6-0.2,1.3-0.3,2-0.4c0.1,0,0.2,0,0.3,0     C10.7,10.5,11,10.5,11.2,10.5z" id="XMLID_103_"/><path class="st2" d="M24.7,14.8c0.7,0,1.5,0,2.2,0c0,0.2,0,0.3,0,0.5c0,0.6,0,1.3,0,1.9c0,0.2,0,0.4,0,0.6     c0,0.1,0,0.1,0.1,0.1c1,0,1.9,0,2.9,0c0.1,0,0.1,0,0.1,0.1c0,0.6,0,1.3,0,1.9c0,0.1,0,0.1-0.1,0.1c-1,0-1.9,0-2.9,0     c-0.1,0-0.2,0-0.2,0.1c0,0.3,0,0.6,0,1c0,0.5,0,1,0,1.6c0,0.1,0,0.3,0,0.4c0,0.1,0,0.1-0.1,0.1c-0.7,0-1.4,0-2.1,0     c0,0,0-0.1,0-0.1c0-1,0-1.9,0-2.9c0-0.2,0-0.2-0.2-0.2c-1,0-1.9,0-2.9,0c-0.1,0-0.1,0-0.1-0.1c0-0.7,0-1.3,0-2     c0-0.1,0-0.1,0.1-0.1c1,0,1.9,0,2.9,0c0.2,0,0.2,0,0.2-0.2C24.7,16.8,24.7,15.8,24.7,14.8C24.7,14.8,24.7,14.8,24.7,14.8z" id="XMLID_100_"/></g></g></g></svg>