<?xml version="1.0" ?><svg height="32px" id="Pinterest" style="enable-background:new 0 0 32 32;" version="1.0" viewBox="0 0 32 32" width="32px" xml:space="preserve" xmlns="http://www.w3.org/2000/svg" xmlns:xlink="http://www.w3.org/1999/xlink"><style type="text/css">
	.Drop_x0020_Shadow{fill:none;}
	.Round_x0020_Corners_x0020_2_x0020_pt{fill:#FFFFFF;stroke:#231F20;stroke-miterlimit:10;}
	.Live_x0020_Reflect_x0020_X{fill:none;}
	.Bevel_x0020_Soft{fill:url(#SVGID_1_);}
	.Dusk{fill:#FFFFFF;}
	.Foliage_GS{fill:#FFDD00;}
	.Pompadour_GS{fill-rule:evenodd;clip-rule:evenodd;fill:#44ADE2;}
	.st0{fill:#D73737;}
	.st1{fill:#951B1E;}
	.st2{fill:#FFFFFF;}
</style><linearGradient gradientUnits="userSpaceOnUse" id="SVGID_1_" x1="-94" x2="-93.2929" y1="0" y2="0.7071"><stop offset="0" style="stop-color:#DEDFE3"/><stop offset="0.1783" style="stop-color:#DADBDF"/><stop offset="0.3611" style="stop-color:#CECFD3"/><stop offset="0.546" style="stop-color:#B9BCBF"/><stop offset="0.7324" style="stop-color:#9CA0A2"/><stop offset="0.9181" style="stop-color:#787D7E"/><stop offset="1" style="stop-color:#656B6C"/></linearGradient><g id="XMLID_270_"><path class="st0" d="M27.2,31.5H4.8c-2.4,0-4.3-1.9-4.3-4.3V4.7c0-2.4,1.9-4.3,4.3-4.3h22.4c2.4,0,4.3,1.9,4.3,4.3   v22.4C31.5,29.5,29.6,31.5,27.2,31.5z" id="XMLID_16_"/><polygon class="st1" id="XMLID_15_" points="31.5,31.6 0.5,31.6 0.5,23.9 31.5,23.7  "/><g id="GIuPRK.tif"><g id="XMLID_25_"><path class="st2" d="M13.5,5c0.1,0,0.1,0,0.2,0c0.9,0,1.8,0.2,2.6,0.4c1.4,0.4,2.6,1,3.7,1.8     c1.2,1,2.2,2.2,2.8,3.6c0.4,1,0.6,2,0.7,3c0,0.8,0,1.7-0.1,2.5c-0.2,1.2-0.5,2.5-1,3.6c-0.3,0.7-0.7,1.4-1.2,2.1     c-1,1.3-2.3,2.3-3.9,2.8c-0.9,0.3-1.8,0.4-2.7,0.4c-1.2-0.1-2.2-0.5-3.1-1.3c-0.2-0.2-0.3-0.3-0.5-0.5c0,0,0-0.1-0.1-0.1     c0,0,0,0-0.1,0.1c-0.2,0.6-0.3,1.2-0.5,1.9c-0.3,1-0.5,2.1-0.9,3.1c-0.4,1.2-0.9,2-1.6,3.1H6.2c-0.1-0.8-0.1-1.5-0.1-2.3     c0-0.9,0.1-1.8,0.3-2.6c0.3-1.1,0.5-2.3,0.8-3.4c0.2-0.8,0.4-1.7,0.6-2.5c0.2-0.8,0.3-1.5,0.5-2.3c0.1-0.3,0-0.5-0.1-0.7     C8.1,17.1,8,16.4,8,15.8c-0.1-1.1,0.1-2.1,0.7-3c0.4-0.7,0.9-1.2,1.7-1.4c0.8-0.3,1.6-0.2,2.3,0.4c0.4,0.3,0.6,0.8,0.7,1.3     c0.1,0.6,0.1,1.1-0.1,1.7c-0.2,0.8-0.4,1.7-0.7,2.5c-0.2,0.6-0.4,1.2-0.5,1.9c-0.1,0.2-0.1,0.5-0.1,0.7c-0.1,0.9,0.3,1.6,1,2.1     c0.6,0.4,1.3,0.5,2,0.5c1-0.1,1.8-0.7,2.5-1.5c0.7-0.8,1.2-1.8,1.5-2.8c0.3-0.9,0.5-1.8,0.6-2.7c0.1-0.6,0.1-1.2,0.1-1.8     C19.3,12.3,19,11,18.1,10c-0.6-0.7-1.3-1.2-2.1-1.5c-0.7-0.3-1.5-0.5-2.3-0.5c-0.9-0.1-1.8,0-2.6,0.1C10.1,8.2,9.3,8.5,8.6,9     c-0.7,0.4-1.3,0.9-1.8,1.5c-0.6,0.8-1.1,1.6-1.4,2.6c-0.3,0.8-0.4,1.6-0.4,2.5c0,1.2,0.3,2.2,1.1,3.1c0.2,0.3,0.3,0.6,0.2,0.9     c-0.1,0.4-0.2,0.7-0.3,1.1c0,0.1-0.1,0.3-0.1,0.4c-0.2,0.3-0.5,0.4-0.8,0.2c-0.9-0.4-1.6-1-2.1-1.7c-0.5-0.8-0.8-1.6-1-2.5     c-0.1-0.3-0.1-0.7-0.1-1c0,0,0-0.1,0-0.1c0-0.5,0-1,0-1.5c0,0,0-0.1,0-0.1c0.1-0.9,0.3-1.7,0.6-2.5C3,10.2,4,8.8,5.3,7.7     C6.1,7,7.1,6.4,8.2,6c0.6-0.3,1.3-0.5,2-0.6c0.7-0.2,1.5-0.3,2.3-0.3c0.2,0,0.4,0,0.5,0C13.1,5,13.3,5,13.5,5z" id="XMLID_45_"/></g></g></g></svg>