<?xml version="1.0" ?><svg height="32px" id="Twitter" style="enable-background:new 0 0 32 32;" version="1.0" viewBox="0 0 32 32" width="32px" xml:space="preserve" xmlns="http://www.w3.org/2000/svg" xmlns:xlink="http://www.w3.org/1999/xlink"><style type="text/css">
	.Drop_x0020_Shadow{fill:none;}
	.Round_x0020_Corners_x0020_2_x0020_pt{fill:#FFFFFF;stroke:#231F20;stroke-miterlimit:10;}
	.Live_x0020_Reflect_x0020_X{fill:none;}
	.Bevel_x0020_Soft{fill:url(#SVGID_1_);}
	.Dusk{fill:#FFFFFF;}
	.Foliage_GS{fill:#FFDD00;}
	.Pompadour_GS{fill-rule:evenodd;clip-rule:evenodd;fill:#44ADE2;}
	.st0{fill:#4DC7EE;}
	.st1{fill:#00809F;}
	.st2{fill:#FFFFFF;}
</style><linearGradient gradientUnits="userSpaceOnUse" id="SVGID_1_" x1="-141" x2="-140.2929" y1="0" y2="0.7071"><stop offset="0" style="stop-color:#DEDFE3"/><stop offset="0.1783" style="stop-color:#DADBDF"/><stop offset="0.3611" style="stop-color:#CECFD3"/><stop offset="0.546" style="stop-color:#B9BCBF"/><stop offset="0.7324" style="stop-color:#9CA0A2"/><stop offset="0.9181" style="stop-color:#787D7E"/><stop offset="1" style="stop-color:#656B6C"/></linearGradient><g id="XMLID_267_"><path class="st0" d="M27.2,31.3H4.8c-2.4,0-4.3-1.9-4.3-4.3V4.7c0-2.4,1.9-4.3,4.3-4.3h22.3c2.4,0,4.3,1.9,4.3,4.3   V27C31.4,29.4,29.5,31.3,27.2,31.3z" id="XMLID_266_"/><polygon class="st1" id="XMLID_265_" points="31.4,31.4 0.6,31.4 0.6,23.8 31.4,23.6  "/><g id="zkT7EV.tif"><g id="XMLID_263_"><path class="st2" d="M19.4,9.4c0.1,0,0.3,0,0.4,0c0,0,0.1,0,0.1,0c0.3,0,0.6,0.1,0.9,0.1     c0.9,0.2,1.6,0.7,2.3,1.3c0.1,0.1,0.1,0.1,0.2,0.1c1-0.2,2-0.6,2.8-1.1c0,0,0.1,0,0.1-0.1c0,0,0,0,0,0c-0.1,0.3-0.2,0.5-0.4,0.8     c-0.4,0.8-1,1.4-1.7,1.9c0.9-0.1,1.9-0.4,2.8-0.8c-0.3,0.5-0.7,1-1.1,1.4c-0.4,0.4-0.8,0.8-1.3,1.1c0,0-0.1,0.1-0.1,0.1     c0,0.6,0,1.1,0,1.7c0,0.7-0.2,1.4-0.3,2c-0.6,2.5-1.7,4.6-3.4,6.5c-1.2,1.3-2.5,2.3-4,3c-2,0.9-4.1,1.3-6.3,1.3     c-0.9,0-1.7-0.1-2.6-0.3c-1.7-0.3-3.2-1-4.7-1.9c0,0,0,0-0.1-0.1c1.3,0.1,2.6,0.1,3.8-0.3c1.2-0.3,2.4-0.9,3.4-1.7     c-2.7-0.1-4.2-2.1-4.5-3.4c0.2,0,0.4,0,0.5,0.1c0.2,0,0.4,0,0.5,0c0.2,0,0.4,0,0.5,0c0.2,0,0.3-0.1,0.5-0.1     c-1.1-0.3-2.1-0.9-2.8-1.8c-0.7-0.9-1.1-2-1.1-3.1c0.4,0.1,0.7,0.3,1.1,0.4c0.4,0.1,0.7,0.2,1.1,0.2c-2.5-1.8-2.5-4.9-1.5-6.5     c2.6,3.1,6,4.8,10.1,5.1c0,0,0,0,0-0.1c-0.1-0.6-0.2-1.2-0.1-1.9c0.2-0.9,0.6-1.8,1.2-2.5c0.7-0.8,1.7-1.3,2.8-1.5     C18.9,9.4,19.1,9.4,19.4,9.4z" id="XMLID_264_"/></g></g></g></svg>